<?xml version="1.0" encoding="UTF-8"?>
<!DOCTYPE svg PUBLIC "-//W3C//DTD SVG 1.1//EN" "http://www.w3.org/Graphics/SVG/1.1/DTD/svg11.dtd">
<svg xmlns="http://www.w3.org/2000/svg" version="1.1" width="512px" height="512px" style="shape-rendering:geometricPrecision; text-rendering:geometricPrecision; image-rendering:optimizeQuality; fill-rule:evenodd; clip-rule:evenodd" xmlns:xlink="http://www.w3.org/1999/xlink">
<g><path style="opacity:0.911" fill="#222021" d="M 355.5,81.5 C 355.66,83.153 356.326,84.4863 357.5,85.5C 357.824,156.529 357.49,227.529 356.5,298.5C 355.662,298.842 355.328,299.508 355.5,300.5C 354.833,300.5 354.5,300.833 354.5,301.5C 353.167,301.833 353.167,302.167 354.5,302.5C 354.158,303.338 353.492,303.672 352.5,303.5C 352.167,302.167 351.833,302.167 351.5,303.5C 350.508,303.328 349.842,303.662 349.5,304.5C 307.165,304.333 264.832,304.5 222.5,305C 390.499,305.833 390.499,306.333 222.5,306.5C 222.5,312.833 222.5,319.167 222.5,325.5C 246.491,325.667 246.491,326.167 222.5,327C 229.217,327.204 235.883,327.704 242.5,328.5C 244.766,327.443 246.766,327.943 248.5,330C 248.167,330.333 247.833,330.667 247.5,331C 249.3,332.812 250.967,334.645 252.5,336.5C 252.263,337.791 252.596,338.791 253.5,339.5C 253.5,341.167 253.5,342.833 253.5,344.5C 214.152,345.161 175.152,344.494 136.5,342.5C 137.469,340.337 138.302,338.004 139,335.5C 142.082,332.987 144.249,330.321 145.5,327.5C 153.738,327.636 162.071,327.636 170.5,327.5C 170.5,319.833 170.5,312.167 170.5,304.5C 127.5,304.5 84.5,304.5 41.5,304.5C 40.8333,303.167 40.1667,303.167 39.5,304.5C 37.6214,304.607 37.2881,304.107 38.5,303C 36.6217,301.457 35.1217,299.624 34,297.5C 33.1732,225.793 33.3399,154.126 34.5,82.5C 35.9538,81.4797 36.2871,80.313 35.5,79C 36.4491,78.3828 37.2825,78.5494 38,79.5C 39.2036,78.5294 39.7036,77.5294 39.5,76.5C 143.5,77.8333 247.5,77.8333 351.5,76.5C 351.764,78.4981 353.097,80.1648 355.5,81.5 Z M 194.5,81.5 C 194.56,80.9569 194.893,80.6236 195.5,80.5C 196.583,81.365 196.749,82.365 196,83.5C 195.722,82.5842 195.222,81.9175 194.5,81.5 Z M 344.5,89.5 C 344.5,150.833 344.5,212.167 344.5,273.5C 244.763,273.831 145.096,273.498 45.5,272.5C 45.5,211.833 45.5,151.167 45.5,90.5C 145.096,89.5025 244.763,89.1691 344.5,89.5 Z M 317.5,287.5 C 319.337,287.639 319.67,288.306 318.5,289.5C 317.702,289.043 317.369,288.376 317.5,287.5 Z M 329.5,287.5 C 331.337,287.639 331.67,288.306 330.5,289.5C 329.702,289.043 329.369,288.376 329.5,287.5 Z"/></g>
<g><path style="opacity:0.945" fill="#232021" d="M 490.5,82.5 C 490.5,196.833 490.5,311.167 490.5,425.5C 489.662,425.842 489.328,426.508 489.5,427.5C 488.833,427.5 488.5,427.833 488.5,428.5C 487.833,428.5 487.5,428.833 487.5,429.5C 486.833,429.5 486.5,429.833 486.5,430.5C 485.209,430.263 484.209,430.596 483.5,431.5C 449.833,431.5 416.167,431.5 382.5,431.5C 381.48,430.046 380.313,429.713 379,430.5C 378.392,428.934 377.558,427.6 376.5,426.5C 375.337,312.54 375.171,198.54 376,84.5C 376.739,81.4265 378.572,79.2598 381.5,78C 417.01,77.5171 452.343,77.3504 487.5,77.5C 488.291,79.1484 489.291,80.815 490.5,82.5 Z M 390.5,115.5 C 419.662,114.502 448.995,114.169 478.5,114.5C 478.378,118.838 478.045,119.172 477.5,115.5C 448.5,115.5 419.5,115.5 390.5,115.5 Z M 476.5,179.5 C 476.643,181.262 476.309,182.929 475.5,184.5C 461,184.833 446.5,185.167 432,185.5C 417.151,185.499 402.651,184.833 388.5,183.5C 389.404,182.791 389.737,181.791 389.5,180.5C 418.426,179.509 447.426,179.175 476.5,179.5 Z M 476.5,196.5 C 476.5,197.833 476.5,199.167 476.5,200.5C 447.5,200.5 418.5,200.5 389.5,200.5C 389.33,199.178 389.663,198.011 390.5,197C 419.165,196.5 447.831,196.333 476.5,196.5 Z M 476.5,213.5 C 476.5,213.167 476.5,212.833 476.5,212.5C 477.693,212.97 478.36,213.97 478.5,215.5C 478.48,216.726 478.147,217.726 477.5,218.5C 477.784,216.585 477.451,214.919 476.5,213.5 Z M 389.5,213.5 C 418.5,213.5 447.5,213.5 476.5,213.5C 476.5,214.833 476.5,216.167 476.5,217.5C 447.5,217.5 418.5,217.5 389.5,217.5C 389.5,216.167 389.5,214.833 389.5,213.5 Z M 389.5,230.5 C 418.5,230.5 447.5,230.5 476.5,230.5C 476.5,231.833 476.5,233.167 476.5,234.5C 447.5,234.5 418.5,234.5 389.5,234.5C 389.5,233.167 389.5,231.833 389.5,230.5 Z M 429.5,349.5 C 432.57,349.368 435.57,349.701 438.5,350.5C 439.801,351.882 440.634,353.548 441,355.5C 441.483,354.552 441.649,353.552 441.5,352.5C 442.833,355.5 442.833,358.5 441.5,361.5C 441.649,360.448 441.483,359.448 441,358.5C 440.392,360.154 439.892,361.821 439.5,363.5C 437.821,363.892 436.154,364.392 434.5,365C 434.833,365.333 435.167,365.667 435.5,366C 432.961,366.796 430.628,366.629 428.5,365.5C 429.873,365.657 431.207,365.49 432.5,365C 430.324,364.837 428.491,364.004 427,362.5C 426.057,359.749 425.224,357.083 424.5,354.5C 424.263,353.209 424.596,352.209 425.5,351.5C 425.369,352.239 425.536,352.906 426,353.5C 426.69,351.65 427.856,350.316 429.5,349.5 Z M 431.5,387.5 C 433.948,387.085 435.281,388.085 435.5,390.5C 435.182,391.647 434.516,392.481 433.5,393C 434.5,393.333 435.5,393.667 436.5,394C 434.284,394.393 432.284,393.893 430.5,392.5C 430.366,390.708 430.699,389.042 431.5,387.5 Z"/></g>
<g><path style="opacity:0.008" fill="#222121" d="M 356.5,81.5 C 355.833,80.1667 355.833,80.1667 356.5,81.5 Z"/></g>
<g><path style="opacity:0.008" fill="#211f20" d="M 34.5,82.5 C 33.8333,81.1667 33.8333,81.1667 34.5,82.5 Z"/></g>
<g><path style="opacity:0.004" fill="#222121" d="M 356.5,81.5 C 357.833,82.1667 357.833,82.1667 356.5,81.5 Z"/></g>
<g><path style="opacity:0.008" fill="#222021" d="M 374.5,81.5 C 375.525,81.8966 375.692,82.5632 375,83.5C 374.536,82.9056 374.369,82.2389 374.5,81.5 Z"/></g>
<g><path style="opacity:0.008" fill="#222021" d="M 490.5,81.5 C 491.833,82.1667 491.833,82.1667 490.5,81.5 Z"/></g>
<g><path style="opacity:0.008" fill="#222120" d="M 33.5,82.5 C 32.8333,83.1667 32.8333,83.1667 33.5,82.5 Z"/></g>
<g><path style="opacity:0.008" fill="#222121" d="M 358.5,85.5 C 358.167,85.5 357.833,85.5 357.5,85.5C 357.833,82.8333 358.167,82.8333 358.5,85.5 Z"/></g>
<g><path style="opacity:0.012" fill="#222121" d="M 491.5,425.5 C 491.333,311.5 491.5,197.5 492,83.5C 492.833,197.667 492.666,311.667 491.5,425.5 Z"/></g>
<g><path style="opacity:0.004" fill="#222121" d="M 31.5,84.5 C 32.6655,155.332 32.8322,226.332 32,297.5C 31.5,226.501 31.3333,155.501 31.5,84.5 Z"/></g>
<g><path style="opacity:0.008" fill="#222021" d="M 373.5,84.5 C 374.666,197.333 374.833,310.333 374,423.5C 373.5,310.5 373.333,197.5 373.5,84.5 Z"/></g>
<g><path style="opacity:0.008" fill="#232021" d="M 358.5,85.5 C 359.665,155.332 359.832,225.332 359,295.5C 358.5,225.501 358.333,155.501 358.5,85.5 Z"/></g>
<g><path style="opacity:0.004" fill="#221c1f" d="M 389.5,100.5 C 389.833,100.5 390.167,100.5 390.5,100.5C 418.995,101.498 447.662,101.831 476.5,101.5C 462.171,102.167 447.671,102.5 433,102.5C 418.151,102.499 403.651,101.833 389.5,100.5 Z"/></g>
<g><path style="opacity:0.008" fill="#232021" d="M 357.5,298.5 C 357.369,297.761 357.536,297.094 358,296.5C 358.692,297.437 358.525,298.103 357.5,298.5 Z"/></g>
<g><path style="opacity:0.008" fill="#212021" d="M 356.5,298.5 C 356.833,298.5 357.167,298.5 357.5,298.5C 357.315,299.17 356.981,299.17 356.5,298.5 Z"/></g>
<g><path style="opacity:0.004" fill="#222021" d="M 355.5,300.5 C 356.833,301.167 356.833,301.167 355.5,300.5 Z"/></g>
<g><path style="opacity:0.004" fill="#212121" d="M 354.5,301.5 C 354.833,301.5 355.167,301.5 355.5,301.5C 355.315,302.17 354.981,302.17 354.5,301.5 Z"/></g>
<g><path style="opacity:0.008" fill="#212020" d="M 351.5,303.5 C 351.833,303.5 352.167,303.5 352.5,303.5C 352.315,304.17 351.981,304.17 351.5,303.5 Z"/></g>
<g><path style="opacity:0.004" fill="#211f20" d="M 39.5,304.5 C 40.1667,304.5 40.8333,304.5 41.5,304.5C 41.5,304.833 41.5,305.167 41.5,305.5C 40.5084,305.672 39.8417,305.338 39.5,304.5 Z"/></g>
<g><path style="opacity:0.01" fill="#232022" d="M 349.5,304.5 C 350.167,304.5 350.833,304.5 351.5,304.5C 350.833,305.833 350.167,305.833 349.5,304.5 Z"/></g>
<g><path style="opacity:0.012" fill="#222022" d="M 41.5,305.5 C 84.168,305.333 126.835,305.5 169.5,306C 126.665,306.831 83.998,306.665 41.5,305.5 Z"/></g>
<g><path style="opacity:0.011" fill="#222021" d="M 149.5,326.5 C 155.987,325.346 162.654,325.179 169.5,326C 162.842,326.5 156.175,326.666 149.5,326.5 Z"/></g>
<g><path style="opacity:0.008" fill="#222021" d="M 252.5,335.5 C 253.833,336.167 253.833,336.167 252.5,335.5 Z"/></g>
<g><path style="opacity:0.012" fill="#222121" d="M 136.5,336.5 C 137.833,337.167 137.833,337.167 136.5,336.5 Z"/></g>
<g><path style="opacity:0.01" fill="#222120" d="M 253.5,339.5 C 253.369,338.761 253.536,338.094 254,337.5C 254.692,338.437 254.525,339.103 253.5,339.5 Z"/></g>
<g><path style="opacity:0.008" fill="#232021" d="M 136.5,342.5 C 135.402,341.399 135.235,340.066 136,338.5C 136.49,339.793 136.657,341.127 136.5,342.5 Z"/></g>
<g><path style="opacity:0.008" fill="#222021" d="M 254.5,340.5 C 255.598,341.601 255.765,342.934 255,344.5C 254.51,343.207 254.343,341.873 254.5,340.5 Z"/></g>
<g><path style="opacity:0.012" fill="#222021" d="M 137.5,346.5 C 175.998,345.335 214.664,345.169 253.5,346C 214.835,346.5 176.168,346.667 137.5,346.5 Z"/></g>
<g><path style="opacity:0.008" fill="#222021" d="M 335.5,353.5 C 241.833,353.667 148.166,353.5 54.5,353C 148.334,352.168 242.001,352.334 335.5,353.5 Z"/></g>
<g><path style="opacity:0.863" fill="#222021" d="M 335.5,353.5 C 336.167,354.5 336.833,355.5 337.5,356.5C 337.328,357.492 337.662,358.158 338.5,358.5C 338.328,359.492 338.662,360.158 339.5,360.5C 339.328,361.492 339.662,362.158 340.5,362.5C 344.713,373.258 349.713,383.592 355.5,393.5C 355.328,394.492 355.662,395.158 356.5,395.5C 356.328,396.492 356.662,397.158 357.5,397.5C 361.046,406.924 365.379,415.924 370.5,424.5C 370.631,425.239 370.464,425.906 370,426.5C 253.667,425.167 137.333,425.167 21,426.5C 20.3333,425.5 20.3333,424.5 21,423.5C 25.0656,416.039 28.5656,408.373 31.5,400.5C 32.3382,400.158 32.6716,399.492 32.5,398.5C 33.3382,398.158 33.6716,397.492 33.5,396.5C 34.3382,396.158 34.6716,395.492 34.5,394.5C 39.9537,385.258 44.6204,375.591 48.5,365.5C 49.3382,365.158 49.6716,364.492 49.5,363.5C 50.3382,363.158 50.6716,362.492 50.5,361.5C 51.3382,361.158 51.6716,360.492 51.5,359.5C 52.3382,359.158 52.6716,358.492 52.5,357.5C 53.2674,356.828 53.9341,355.995 54.5,355C 148.334,354.833 242.001,354.333 335.5,353.5 Z M 318.5,364.5 C 310.65,364.045 302.984,364.045 295.5,364.5C 290.5,364.5 285.5,364.5 280.5,364.5C 246.834,363.167 213.167,363.167 179.5,364.5C 174.5,364.5 169.5,364.5 164.5,364.5C 157.02,364.12 149.353,364.12 141.5,364.5C 121.006,363.647 100.34,363.647 79.5,364.5C 74.1497,364.183 68.8164,363.683 63.5,363C 151.167,362.333 238.833,362.333 326.5,363C 323.635,363.183 320.969,363.683 318.5,364.5 Z M 62.5,364.5 C 65.3878,363.99 67.7211,364.656 69.5,366.5C 67.8624,367.705 67.5291,369.038 68.5,370.5C 68.3691,371.376 68.7025,372.043 69.5,372.5C 74.8631,371.833 80.1965,371.166 85.5,370.5C 85.3284,369.508 85.6618,368.842 86.5,368.5C 86.3284,367.508 86.6618,366.842 87.5,366.5C 87.369,365.761 87.5357,365.094 88,364.5C 89.2988,364.966 90.7988,364.966 92.5,364.5C 92.5,365.5 92.5,366.5 92.5,367.5C 91.1667,368.167 91.1667,368.833 92.5,369.5C 92.3505,370.552 92.5172,371.552 93,372.5C 98.7071,372.099 104.207,371.099 109.5,369.5C 109.263,368.209 109.596,367.209 110.5,366.5C 110.833,369.167 111.167,369.167 111.5,366.5C 112.815,364.401 114.482,364.067 116.5,365.5C 116.737,366.791 116.404,367.791 115.5,368.5C 115.5,369.5 115.5,370.5 115.5,371.5C 120.833,371.5 126.167,371.5 131.5,371.5C 131.263,370.209 131.596,369.209 132.5,368.5C 132.5,367.167 132.5,365.833 132.5,364.5C 135.71,364.751 138.71,364.751 141.5,364.5C 141.204,366.403 140.537,368.07 139.5,369.5C 144.396,371.446 149.729,372.113 155.5,371.5C 155.595,369.214 156.262,367.214 157.5,365.5C 159.546,364.035 161.38,364.368 163,366.5C 163.278,365.584 163.778,364.918 164.5,364.5C 164.007,366.806 163.674,369.139 163.5,371.5C 168.833,371.5 174.167,371.5 179.5,371.5C 179.5,369.167 179.5,366.833 179.5,364.5C 181.5,364.5 183.5,364.5 185.5,364.5C 185.672,373.81 186.172,373.81 187,364.5C 187.497,366.81 187.663,369.143 187.5,371.5C 192.833,371.5 198.167,371.5 203.5,371.5C 203.5,369.167 203.5,366.833 203.5,364.5C 205.766,364.141 207.599,364.808 209,366.5C 209.333,365.833 209.667,365.167 210,364.5C 210.662,366.813 211.162,369.146 211.5,371.5C 216.5,371.5 221.5,371.5 226.5,371.5C 226.337,369.143 226.503,366.81 227,364.5C 227.823,371.134 228.323,371.134 228.5,364.5C 230.199,364.527 231.533,365.194 232.5,366.5C 232.833,370.5 233.167,370.5 233.5,366.5C 234.434,367.568 234.768,368.901 234.5,370.5C 239.74,371.449 245.073,371.782 250.5,371.5C 250.5,370.167 250.5,368.833 250.5,367.5C 251.404,366.791 251.737,365.791 251.5,364.5C 253.554,364.365 255.221,365.032 256.5,366.5C 256.491,368.308 256.991,369.975 258,371.5C 258.464,370.906 258.631,370.239 258.5,369.5C 263.878,371.542 269.545,372.042 275.5,371C 274.158,368.985 273.658,366.818 274,364.5C 274.333,365.167 274.667,365.833 275,366.5C 275.71,365.027 276.876,364.36 278.5,364.5C 278.263,365.791 278.596,366.791 279.5,367.5C 279.833,370.167 280.167,370.167 280.5,367.5C 281.404,368.209 281.737,369.209 281.5,370.5C 286.804,371.166 292.137,371.833 297.5,372.5C 298.298,372.043 298.631,371.376 298.5,370.5C 297.069,369.22 296.402,367.553 296.5,365.5C 296.833,365.5 297.167,365.5 297.5,365.5C 299.357,364.235 301.024,364.568 302.5,366.5C 302.709,367.922 303.209,369.255 304,370.5C 304.464,369.906 304.631,369.239 304.5,368.5C 305.267,369.172 305.934,370.005 306.5,371C 311.418,371.195 316.251,371.695 321,372.5C 321.483,371.552 321.649,370.552 321.5,369.5C 322.471,368.038 322.138,366.705 320.5,365.5C 323.061,364.233 325.728,364.233 328.5,365.5C 332.049,373.6 335.883,381.6 340,389.5C 340.464,388.906 340.631,388.239 340.5,387.5C 341.931,388.78 342.598,390.447 342.5,392.5C 343.338,392.842 343.672,393.508 343.5,394.5C 344.338,394.842 344.672,395.508 344.5,396.5C 345.338,396.842 345.672,397.508 345.5,398.5C 346.338,398.842 346.672,399.508 346.5,400.5C 345.957,400.56 345.624,400.893 345.5,401.5C 347.608,406.054 349.941,410.388 352.5,414.5C 351.848,415.725 350.681,416.392 349,416.5C 347.213,416.241 345.713,415.575 344.5,414.5C 344.291,413.078 343.791,411.745 343,410.5C 342.31,409.262 341.81,409.262 341.5,410.5C 338.769,409.27 335.769,408.604 332.5,408.5C 329.645,408.503 326.978,408.836 324.5,409.5C 323.957,409.56 323.624,409.893 323.5,410.5C 324.333,412.167 325.167,413.833 326,415.5C 326.464,414.906 326.631,414.239 326.5,413.5C 327.404,414.209 327.737,415.209 327.5,416.5C 323.486,416.666 319.486,416.499 315.5,416C 314.663,414.989 314.33,413.822 314.5,412.5C 313.609,411.739 312.942,410.739 312.5,409.5C 307.544,408.506 302.544,408.173 297.5,408.5C 297.833,410.5 298.167,412.5 298.5,414.5C 298.167,414.5 297.833,414.5 297.5,414.5C 296.082,416.308 294.082,416.975 291.5,416.5C 291.737,415.209 291.404,414.209 290.5,413.5C 290.167,409.5 289.833,409.5 289.5,413.5C 288.661,412.359 287.994,411.026 287.5,409.5C 226.169,408.333 164.836,408.167 103.5,409C 102.915,410.302 102.249,411.469 101.5,412.5C 101.67,413.822 101.337,414.989 100.5,416C 97.5184,416.498 94.5184,416.665 91.5,416.5C 91.2627,415.209 91.596,414.209 92.5,413.5C 92.369,414.239 92.5357,414.906 93,415.5C 94.298,414.054 94.4646,412.721 93.5,411.5C 93.5,410.5 93.5,409.5 93.5,408.5C 88.1667,408.5 82.8333,408.5 77.5,408.5C 77.7373,409.791 77.404,410.791 76.5,411.5C 76.7373,412.791 76.404,413.791 75.5,414.5C 75.1667,411.833 74.8333,411.833 74.5,414.5C 71.0868,416.768 67.4201,417.102 63.5,415.5C 63.3284,414.508 63.6618,413.842 64.5,413.5C 64.3284,412.508 64.6618,411.842 65.5,411.5C 65.5,410.5 65.5,409.5 65.5,408.5C 60.4889,408.334 55.4889,408.501 50.5,409C 49.9341,409.995 49.2674,410.828 48.5,411.5C 48.631,410.761 48.4643,410.094 48,409.5C 46.702,410.946 46.5354,412.279 47.5,413.5C 47.5,414.5 47.5,415.5 47.5,416.5C 43.9581,416.813 40.6248,416.479 37.5,415.5C 40.0591,411.388 42.3924,407.054 44.5,402.5C 44.3764,401.893 44.0431,401.56 43.5,401.5C 43.3284,400.508 43.6618,399.842 44.5,399.5C 44.3284,398.508 44.6618,397.842 45.5,397.5C 45.3284,396.508 45.6618,395.842 46.5,395.5C 47.0421,392.088 48.3754,389.088 50.5,386.5C 50.369,387.239 50.5357,387.906 51,388.5C 55.1174,380.6 58.9507,372.6 62.5,364.5 Z M 47.5,416.5 C 57.0057,417.191 66.3391,417.191 75.5,416.5C 146.812,416.592 218.146,416.592 289.5,416.5C 307.321,417.332 325.321,417.332 343.5,416.5C 346.641,417.321 349.975,417.821 353.5,418C 247.666,418.833 141.999,418.666 36.5,417.5C 40.3714,417.815 44.0381,417.482 47.5,416.5 Z"/></g>
<g><path style="opacity:0.012" fill="#222121" d="M 337.5,355.5 C 338.833,356.167 338.833,356.167 337.5,355.5 Z"/></g>
<g><path style="opacity:0.012" fill="#212120" d="M 52.5,357.5 C 51.8333,356.167 51.8333,356.167 52.5,357.5 Z"/></g>
<g><path style="opacity:0.012" fill="#222021" d="M 338.5,357.5 C 339.833,358.167 339.833,358.167 338.5,357.5 Z"/></g>
<g><path style="opacity:0.012" fill="#222121" d="M 51.5,359.5 C 50.8333,358.167 50.8333,358.167 51.5,359.5 Z"/></g>
<g><path style="opacity:0.012" fill="#212121" d="M 339.5,359.5 C 340.833,360.167 340.833,360.167 339.5,359.5 Z"/></g>
<g><path style="opacity:0.012" fill="#222021" d="M 50.5,361.5 C 49.8333,360.167 49.8333,360.167 50.5,361.5 Z"/></g>
<g><path style="opacity:0.012" fill="#222120" d="M 340.5,361.5 C 341.833,362.167 341.833,362.167 340.5,361.5 Z"/></g>
<g><path style="opacity:0.012" fill="#222121" d="M 49.5,363.5 C 48.8333,362.167 48.8333,362.167 49.5,363.5 Z"/></g>
<g><path style="opacity:0.738" fill="#222021" d="M 179.5,364.5 C 213.167,363.167 246.834,363.167 280.5,364.5C 279.596,365.209 279.263,366.209 279.5,367.5C 278.596,366.791 278.263,365.791 278.5,364.5C 276.876,364.36 275.71,365.027 275,366.5C 274.667,365.833 274.333,365.167 274,364.5C 273.658,366.818 274.158,368.985 275.5,371C 269.545,372.042 263.878,371.542 258.5,369.5C 258.509,367.692 258.009,366.025 257,364.5C 256.536,365.094 256.369,365.761 256.5,366.5C 255.221,365.032 253.554,364.365 251.5,364.5C 251.737,365.791 251.404,366.791 250.5,367.5C 250.5,368.833 250.5,370.167 250.5,371.5C 245.073,371.782 239.74,371.449 234.5,370.5C 234.768,368.901 234.434,367.568 233.5,366.5C 233.167,363.833 232.833,363.833 232.5,366.5C 231.533,365.194 230.199,364.527 228.5,364.5C 228.323,371.134 227.823,371.134 227,364.5C 226.503,366.81 226.337,369.143 226.5,371.5C 221.5,371.5 216.5,371.5 211.5,371.5C 211.162,369.146 210.662,366.813 210,364.5C 209.667,365.167 209.333,365.833 209,366.5C 207.599,364.808 205.766,364.141 203.5,364.5C 203.5,366.833 203.5,369.167 203.5,371.5C 198.167,371.5 192.833,371.5 187.5,371.5C 187.663,369.143 187.497,366.81 187,364.5C 186.172,373.81 185.672,373.81 185.5,364.5C 183.5,364.5 181.5,364.5 179.5,364.5 Z"/></g>
<g><path style="opacity:0.783" fill="#222021" d="M 295.5,364.5 C 302.984,364.045 310.65,364.045 318.5,364.5C 318.5,365.167 318.833,365.5 319.5,365.5C 319.66,367.153 320.326,368.486 321.5,369.5C 321.649,370.552 321.483,371.552 321,372.5C 316.251,371.695 311.418,371.195 306.5,371C 305.934,370.005 305.267,369.172 304.5,368.5C 304.291,367.078 303.791,365.745 303,364.5C 302.536,365.094 302.369,365.761 302.5,366.5C 301.024,364.568 299.357,364.235 297.5,365.5C 297.167,365.5 296.833,365.5 296.5,365.5C 296.5,364.833 296.167,364.5 295.5,364.5 Z"/></g>
<g><path style="opacity:0.012" fill="#222121" d="M 341.5,363.5 C 342.833,364.167 342.833,364.167 341.5,363.5 Z"/></g>
<g><path style="opacity:0.012" fill="#222121" d="M 48.5,365.5 C 47.8333,364.167 47.8333,364.167 48.5,365.5 Z"/></g>
<g><path style="opacity:0.867" fill="#222021" d="M 164.5,364.5 C 163.778,364.918 163.278,365.584 163,366.5C 161.38,364.368 159.546,364.035 157.5,365.5C 156.262,367.214 155.595,369.214 155.5,371.5C 149.729,372.113 144.396,371.446 139.5,369.5C 140.537,368.07 141.204,366.403 141.5,364.5C 149.353,364.12 157.02,364.12 164.5,364.5 Z"/></g>
<g><path style="opacity:0.859" fill="#222021" d="M 164.5,364.5 C 169.5,364.5 174.5,364.5 179.5,364.5C 179.5,366.833 179.5,369.167 179.5,371.5C 174.167,371.5 168.833,371.5 163.5,371.5C 163.674,369.139 164.007,366.806 164.5,364.5 Z"/></g>
<g><path style="opacity:0.852" fill="#232121" d="M 280.5,364.5 C 285.5,364.5 290.5,364.5 295.5,364.5C 296.167,364.5 296.5,364.833 296.5,365.5C 296.402,367.553 297.069,369.22 298.5,370.5C 298.631,371.376 298.298,372.043 297.5,372.5C 292.137,371.833 286.804,371.166 281.5,370.5C 281.737,369.209 281.404,368.209 280.5,367.5C 280.5,366.5 280.5,365.5 280.5,364.5 Z"/></g>
<g><path style="opacity:0.008" fill="#222121" d="M 342.5,365.5 C 343.833,366.167 343.833,366.167 342.5,365.5 Z"/></g>
<g><path style="opacity:0.749" fill="#222121" d="M 81.5,378.5 C 80.6618,378.842 80.3284,379.508 80.5,380.5C 79.7326,381.172 79.0659,382.005 78.5,383C 73.5111,383.499 68.5111,383.666 63.5,383.5C 63.5,382.5 63.5,381.5 63.5,380.5C 64.3382,380.158 64.6716,379.492 64.5,378.5C 65.3382,378.158 65.6716,377.492 65.5,376.5C 70.7401,375.551 76.0735,375.218 81.5,375.5C 81.5,376.5 81.5,377.5 81.5,378.5 Z"/></g>
<g><path style="opacity:0.75" fill="#222121" d="M 106.5,377.5 C 105.662,377.842 105.328,378.508 105.5,379.5C 104.751,380.531 104.085,381.698 103.5,383C 98.5111,383.499 93.5111,383.666 88.5,383.5C 88.5,382.5 88.5,381.5 88.5,380.5C 89.404,379.791 89.7373,378.791 89.5,377.5C 92.2308,376.27 95.2308,375.604 98.5,375.5C 101.59,375.522 104.257,376.188 106.5,377.5 Z"/></g>
<g><path style="opacity:0.755" fill="#222121" d="M 129.5,377.5 C 128.596,378.209 128.263,379.209 128.5,380.5C 127.596,381.209 127.263,382.209 127.5,383.5C 121.729,384.113 116.396,383.446 111.5,381.5C 112.404,380.791 112.737,379.791 112.5,378.5C 113.404,377.791 113.737,376.791 113.5,375.5C 119.271,374.887 124.604,375.554 129.5,377.5 Z"/></g>
<g><path style="opacity:0.773" fill="#232121" d="M 154.5,376.5 C 153.076,378.515 152.41,380.848 152.5,383.5C 147.125,383.828 141.792,383.495 136.5,382.5C 137.309,380.929 137.643,379.262 137.5,377.5C 140.231,376.27 143.231,375.604 146.5,375.5C 149.355,375.503 152.022,375.836 154.5,376.5 Z"/></g>
<g><path style="opacity:0.761" fill="#222121" d="M 162.5,377.5 C 167.532,375.63 172.865,374.963 178.5,375.5C 178.5,378.167 178.5,380.833 178.5,383.5C 173.167,383.5 167.833,383.5 162.5,383.5C 162.5,381.5 162.5,379.5 162.5,377.5 Z"/></g>
<g><path style="opacity:0.742" fill="#222022" d="M 187.5,375.5 C 192.833,375.5 198.167,375.5 203.5,375.5C 203.768,378.119 203.435,380.619 202.5,383C 197.511,383.499 192.511,383.666 187.5,383.5C 187.5,380.833 187.5,378.167 187.5,375.5 Z"/></g>
<g><path style="opacity:0.767" fill="#232121" d="M 228.5,381.5 C 223.604,383.446 218.271,384.113 212.5,383.5C 212.425,380.794 212.092,378.127 211.5,375.5C 216.833,375.5 222.167,375.5 227.5,375.5C 227.205,377.735 227.539,379.735 228.5,381.5 Z"/></g>
<g><path style="opacity:0.756" fill="#222121" d="M 253.5,378.5 C 253.5,380.167 253.5,381.833 253.5,383.5C 247.865,384.037 242.532,383.37 237.5,381.5C 237.768,379.901 237.434,378.568 236.5,377.5C 241.396,375.554 246.729,374.887 252.5,375.5C 252.263,376.791 252.596,377.791 253.5,378.5 Z"/></g>
<g><path style="opacity:0.762" fill="#222121" d="M 278.5,379.5 C 278.5,380.833 278.5,382.167 278.5,383.5C 272.865,384.037 267.532,383.37 262.5,381.5C 262.737,380.209 262.404,379.209 261.5,378.5C 261.5,377.5 261.5,376.5 261.5,375.5C 266.511,375.334 271.511,375.501 276.5,376C 277.085,377.302 277.751,378.469 278.5,379.5 Z"/></g>
<g><path style="opacity:0.762" fill="#222121" d="M 301.5,378.5 C 301.263,379.791 301.596,380.791 302.5,381.5C 297.604,383.446 292.271,384.113 286.5,383.5C 286.737,382.209 286.404,381.209 285.5,380.5C 285.579,379.07 285.246,377.736 284.5,376.5C 289.792,375.505 295.125,375.172 300.5,375.5C 300.263,376.791 300.596,377.791 301.5,378.5 Z"/></g>
<g><path style="opacity:0.738" fill="#222121" d="M 325.5,377.5 C 325.66,379.153 326.326,380.486 327.5,381.5C 322.749,383.141 317.749,384.141 312.5,384.5C 311.833,383.5 311.167,382.5 310.5,381.5C 310.672,380.508 310.338,379.842 309.5,379.5C 309.672,378.508 309.338,377.842 308.5,377.5C 310.743,376.188 313.41,375.522 316.5,375.5C 319.769,375.604 322.769,376.27 325.5,377.5 Z"/></g>
<g><path style="opacity:0.766" fill="#222021" d="M 61.5,385.5 C 66.7486,385.859 71.7486,386.859 76.5,388.5C 75.3263,389.514 74.6596,390.847 74.5,392.5C 69.122,394.542 63.4553,395.042 57.5,394C 58.2524,393.329 58.5858,392.496 58.5,391.5C 59.7972,389.629 60.7972,387.629 61.5,385.5 Z"/></g>
<g><path style="opacity:0.765" fill="#222021" d="M 102.5,387.5 C 101.596,388.209 101.263,389.209 101.5,390.5C 100.662,390.842 100.328,391.508 100.5,392.5C 97.7692,393.73 94.7692,394.396 91.5,394.5C 88.6445,394.497 85.9779,394.164 83.5,393.5C 84.404,392.791 84.7373,391.791 84.5,390.5C 85.3909,389.739 86.0576,388.739 86.5,387.5C 91.9864,386.185 97.3197,386.185 102.5,387.5 Z"/></g>
<g><path style="opacity:0.765" fill="#222021" d="M 108.5,390.5 C 109.249,389.469 109.915,388.302 110.5,387C 115.489,386.501 120.489,386.334 125.5,386.5C 125.244,388.937 124.577,391.271 123.5,393.5C 118.544,394.494 113.544,394.827 108.5,394.5C 108.5,393.167 108.5,391.833 108.5,390.5 Z"/></g>
<g><path style="opacity:0.771" fill="#222021" d="M 151.5,387.5 C 150.566,388.568 150.232,389.901 150.5,391.5C 149.596,392.209 149.263,393.209 149.5,394.5C 144.125,394.828 138.792,394.495 133.5,393.5C 134.309,391.929 134.643,390.262 134.5,388.5C 137.231,387.27 140.231,386.604 143.5,386.5C 146.355,386.503 149.022,386.836 151.5,387.5 Z"/></g>
<g><path style="opacity:0.754" fill="#222021" d="M 162.5,386.5 C 167.5,386.5 172.5,386.5 177.5,386.5C 177.5,389.167 177.5,391.833 177.5,394.5C 172.167,394.5 166.833,394.5 161.5,394.5C 161.279,391.721 161.612,389.054 162.5,386.5 Z"/></g>
<g><path style="opacity:0.74" fill="#222021" d="M 187.5,386.5 C 192.833,386.5 198.167,386.5 203.5,386.5C 203.5,389.167 203.5,391.833 203.5,394.5C 198.167,394.5 192.833,394.5 187.5,394.5C 187.5,391.833 187.5,389.167 187.5,386.5 Z"/></g>
<g><path style="opacity:0.758" fill="#222022" d="M 229.5,391.5 C 229.5,392.5 229.5,393.5 229.5,394.5C 224.167,394.5 218.833,394.5 213.5,394.5C 213.708,392.08 213.374,389.747 212.5,387.5C 217.792,386.505 223.125,386.172 228.5,386.5C 228.216,388.415 228.549,390.081 229.5,391.5 Z"/></g>
<g><path style="opacity:0.759" fill="#222021" d="M 256.5,389.5 C 256.5,391.167 256.5,392.833 256.5,394.5C 250.865,395.037 245.532,394.37 240.5,392.5C 240.643,390.738 240.309,389.071 239.5,387.5C 244.792,386.505 250.125,386.172 255.5,386.5C 255.263,387.791 255.596,388.791 256.5,389.5 Z"/></g>
<g><path style="opacity:0.753" fill="#222021" d="M 281.5,388.5 C 281.263,389.791 281.596,390.791 282.5,391.5C 282.5,392.5 282.5,393.5 282.5,394.5C 277.167,394.5 271.833,394.5 266.5,394.5C 266.534,391.801 265.867,389.301 264.5,387C 270.455,385.958 276.122,386.458 281.5,388.5 Z"/></g>
<g><path style="opacity:0.754" fill="#222021" d="M 306.5,391.5 C 306.5,392.5 306.5,393.5 306.5,394.5C 301.489,394.666 296.489,394.499 291.5,394C 290.934,393.005 290.267,392.172 289.5,391.5C 289.737,390.209 289.404,389.209 288.5,388.5C 293.396,386.554 298.729,385.887 304.5,386.5C 304.402,388.553 305.069,390.22 306.5,391.5 Z"/></g>
<g><path style="opacity:0.753" fill="#222021" d="M 330.5,387.5 C 330.328,388.492 330.662,389.158 331.5,389.5C 331.328,390.492 331.662,391.158 332.5,391.5C 332.5,392.5 332.5,393.5 332.5,394.5C 327.489,394.666 322.489,394.499 317.5,394C 316.934,393.005 316.267,392.172 315.5,391.5C 315.672,390.508 315.338,389.842 314.5,389.5C 314.5,388.5 314.5,387.5 314.5,386.5C 319.927,386.218 325.26,386.551 330.5,387.5 Z"/></g>
<g><path style="opacity:0.008" fill="#222121" d="M 355.5,393.5 C 355.369,392.761 355.536,392.094 356,391.5C 356.692,392.437 356.525,393.103 355.5,393.5 Z"/></g>
<g><path style="opacity:0.012" fill="#222121" d="M 34.5,394.5 C 33.8333,393.167 33.8333,393.167 34.5,394.5 Z"/></g>
<g><path style="opacity:0.012" fill="#222021" d="M 356.5,394.5 C 357.833,395.167 357.833,395.167 356.5,394.5 Z"/></g>
<g><path style="opacity:0.012" fill="#222121" d="M 33.5,396.5 C 32.8333,395.167 32.8333,395.167 33.5,396.5 Z"/></g>
<g><path style="opacity:0.012" fill="#222121" d="M 357.5,396.5 C 358.833,397.167 358.833,397.167 357.5,396.5 Z"/></g>
<g><path style="opacity:0.012" fill="#222121" d="M 32.5,398.5 C 31.8333,397.167 31.8333,397.167 32.5,398.5 Z"/></g>
<g><path style="opacity:0.758" fill="#222021" d="M 70.5,400.5 C 69.0687,401.78 68.4021,403.447 68.5,405.5C 62.7291,406.113 57.3958,405.446 52.5,403.5C 53.6737,402.486 54.3404,401.153 54.5,399.5C 59.878,397.458 65.5447,396.958 71.5,398C 70.7476,398.671 70.4142,399.504 70.5,400.5 Z"/></g>
<g><path style="opacity:0.762" fill="#222021" d="M 97.5,400.5 C 96.596,401.209 96.2627,402.209 96.5,403.5C 93.7692,404.73 90.7692,405.396 87.5,405.5C 84.4098,405.478 81.7432,404.812 79.5,403.5C 80.3382,403.158 80.6716,402.492 80.5,401.5C 81.2485,400.469 81.9152,399.302 82.5,398C 87.4889,397.501 92.4889,397.334 97.5,397.5C 97.5,398.5 97.5,399.5 97.5,400.5 Z"/></g>
<g><path style="opacity:0.762" fill="#222021" d="M 122.5,399.5 C 121.596,400.209 121.263,401.209 121.5,402.5C 120.596,403.209 120.263,404.209 120.5,405.5C 115.167,405.5 109.833,405.5 104.5,405.5C 104.5,404.5 104.5,403.5 104.5,402.5C 105.404,401.791 105.737,400.791 105.5,399.5C 108.231,398.27 111.231,397.604 114.5,397.5C 117.59,397.522 120.257,398.188 122.5,399.5 Z"/></g>
<g><path style="opacity:0.756" fill="#222021" d="M 148.5,398.5 C 147.566,399.568 147.232,400.901 147.5,402.5C 146.596,403.209 146.263,404.209 146.5,405.5C 140.729,406.113 135.396,405.446 130.5,403.5C 131.434,402.432 131.768,401.099 131.5,399.5C 134.231,398.27 137.231,397.604 140.5,397.5C 143.355,397.503 146.022,397.836 148.5,398.5 Z"/></g>
<g><path style="opacity:0.751" fill="#232021" d="M 161.5,397.5 C 166.5,397.5 171.5,397.5 176.5,397.5C 176.5,400.167 176.5,402.833 176.5,405.5C 171.167,405.5 165.833,405.5 160.5,405.5C 160.279,402.721 160.612,400.054 161.5,397.5 Z"/></g>
<g><path style="opacity:0.74" fill="#222021" d="M 187.5,397.5 C 192.833,397.5 198.167,397.5 203.5,397.5C 203.5,400.167 203.5,402.833 203.5,405.5C 198.167,405.5 192.833,405.5 187.5,405.5C 187.5,402.833 187.5,400.167 187.5,397.5 Z"/></g>
<g><path style="opacity:0.761" fill="#222021" d="M 213.5,397.5 C 218.833,397.5 224.167,397.5 229.5,397.5C 229.575,400.206 229.908,402.873 230.5,405.5C 225.167,405.5 219.833,405.5 214.5,405.5C 214.599,402.763 214.265,400.096 213.5,397.5 Z"/></g>
<g><path style="opacity:0.757" fill="#222021" d="M 259.5,400.5 C 259.5,402.167 259.5,403.833 259.5,405.5C 253.865,406.037 248.532,405.37 243.5,403.5C 243.643,401.738 243.309,400.071 242.5,398.5C 247.792,397.505 253.125,397.172 258.5,397.5C 258.263,398.791 258.596,399.791 259.5,400.5 Z"/></g>
<g><path style="opacity:0.757" fill="#222021" d="M 285.5,400.5 C 285.286,402.144 285.62,403.644 286.5,405C 280.545,406.042 274.878,405.542 269.5,403.5C 269.737,402.209 269.404,401.209 268.5,400.5C 268.5,399.5 268.5,398.5 268.5,397.5C 273.833,397.5 279.167,397.5 284.5,397.5C 284.263,398.791 284.596,399.791 285.5,400.5 Z"/></g>
<g><path style="opacity:0.768" fill="#222021" d="M 309.5,399.5 C 309.263,400.791 309.596,401.791 310.5,402.5C 310.5,403.5 310.5,404.5 310.5,405.5C 305.489,405.666 300.489,405.499 295.5,405C 294.915,403.698 294.249,402.531 293.5,401.5C 293.67,400.178 293.337,399.011 292.5,398C 298.455,396.958 304.122,397.458 309.5,399.5 Z"/></g>
<g><path style="opacity:0.757" fill="#222021" d="M 321.5,403.5 C 321.34,401.847 320.674,400.514 319.5,399.5C 324.396,397.554 329.729,396.887 335.5,397.5C 335.798,400.265 336.798,402.765 338.5,405C 332.545,406.042 326.878,405.542 321.5,403.5 Z"/></g>
<g><path style="opacity:0.012" fill="#222121" d="M 358.5,398.5 C 359.833,399.167 359.833,399.167 358.5,398.5 Z"/></g>
<g><path style="opacity:0.012" fill="#222121" d="M 31.5,400.5 C 30.8333,399.167 30.8333,399.167 31.5,400.5 Z"/></g>
<g><path style="opacity:0.012" fill="#212121" d="M 359.5,400.5 C 360.833,401.167 360.833,401.167 359.5,400.5 Z"/></g>
<g><path style="opacity:0.012" fill="#212021" d="M 29.5,401.5 C 30.8333,402.167 30.8333,402.167 29.5,401.5 Z"/></g>
<g><path style="opacity:0.008" fill="#222121" d="M 360.5,402.5 C 361.833,403.167 361.833,403.167 360.5,402.5 Z"/></g>
<g><path style="opacity:0.012" fill="#212120" d="M 28.5,403.5 C 29.8333,404.167 29.8333,404.167 28.5,403.5 Z"/></g>
<g><path style="opacity:0.008" fill="#222121" d="M 27.5,405.5 C 28.8333,406.167 28.8333,406.167 27.5,405.5 Z"/></g>
<g><path style="opacity:0.672" fill="#232021" d="M 65.5,411.5 C 64.6618,411.842 64.3284,412.508 64.5,413.5C 63.6618,413.842 63.3284,414.508 63.5,415.5C 67.4201,417.102 71.0868,416.768 74.5,414.5C 74.3284,415.492 74.6618,416.158 75.5,416.5C 66.3391,417.191 57.0057,417.191 47.5,416.5C 47.5,415.5 47.5,414.5 47.5,413.5C 48.3382,413.158 48.6716,412.492 48.5,411.5C 49.2674,410.828 49.9341,409.995 50.5,409C 55.4889,408.501 60.4889,408.334 65.5,408.5C 65.5,409.5 65.5,410.5 65.5,411.5 Z"/></g>
<g><path style="opacity:0.808" fill="#232021" d="M 93.5,411.5 C 92.6618,411.842 92.3284,412.508 92.5,413.5C 91.596,414.209 91.2627,415.209 91.5,416.5C 94.5184,416.665 97.5184,416.498 100.5,416C 101.337,414.989 101.67,413.822 101.5,412.5C 102.249,411.469 102.915,410.302 103.5,409C 164.836,408.167 226.169,408.333 287.5,409.5C 287.994,411.026 288.661,412.359 289.5,413.5C 289.5,414.5 289.5,415.5 289.5,416.5C 218.146,416.592 146.812,416.592 75.5,416.5C 75.5,415.833 75.5,415.167 75.5,414.5C 76.404,413.791 76.7373,412.791 76.5,411.5C 77.404,410.791 77.7373,409.791 77.5,408.5C 82.8333,408.5 88.1667,408.5 93.5,408.5C 93.5,409.5 93.5,410.5 93.5,411.5 Z"/></g>
<g><path style="opacity:0.759" fill="#232021" d="M 314.5,412.5 C 314.33,413.822 314.663,414.989 315.5,416C 319.486,416.499 323.486,416.666 327.5,416.5C 327.737,415.209 327.404,414.209 326.5,413.5C 326.34,411.847 325.674,410.514 324.5,409.5C 326.978,408.836 329.645,408.503 332.5,408.5C 335.769,408.604 338.769,409.27 341.5,410.5C 342.167,412.5 342.833,414.5 343.5,416.5C 325.321,417.332 307.321,417.332 289.5,416.5C 290.404,415.791 290.737,414.791 290.5,413.5C 291.404,414.209 291.737,415.209 291.5,416.5C 294.082,416.975 296.082,416.308 297.5,414.5C 297.833,414.5 298.167,414.5 298.5,414.5C 298.167,412.5 297.833,410.5 297.5,408.5C 302.544,408.173 307.544,408.506 312.5,409.5C 312.942,410.739 313.609,411.739 314.5,412.5 Z"/></g>
<g><path style="opacity:0.009" fill="#232022" d="M 36.5,415.5 C 36.8333,415.5 37.1667,415.5 37.5,415.5C 40.6248,416.479 43.9581,416.813 47.5,416.5C 44.0381,417.482 40.3714,417.815 36.5,417.5C 36.5,416.833 36.5,416.167 36.5,415.5 Z"/></g>
<g><path style="opacity:0.008" fill="#222121" d="M 370.5,424.5 C 370.369,423.761 370.536,423.094 371,422.5C 371.692,423.437 371.525,424.103 370.5,424.5 Z"/></g>
<g><path style="opacity:0.006" fill="#232021" d="M 18.5,423.5 C 19.525,423.897 19.6917,424.563 19,425.5C 18.5357,424.906 18.369,424.239 18.5,423.5 Z"/></g>
<g><path style="opacity:0.006" fill="#232022" d="M 490.5,425.5 C 490.833,425.5 491.167,425.5 491.5,425.5C 491.672,426.492 491.338,427.158 490.5,427.5C 490.5,426.833 490.5,426.167 490.5,425.5 Z"/></g>
<g><path style="opacity:0.008" fill="#222120" d="M 376.5,426.5 C 375.833,427.167 375.833,427.167 376.5,426.5 Z"/></g>
<g><path style="opacity:0.01" fill="#222121" d="M 18.5,427.5 C 19.6225,429.288 19.7891,431.288 19,433.5C 18.5045,431.527 18.3379,429.527 18.5,427.5 Z"/></g>
<g><path style="opacity:0.844" fill="#222022" d="M 20.5,427.5 C 137.167,427.5 253.833,427.5 370.5,427.5C 370.5,429.5 370.5,431.5 370.5,433.5C 253.833,433.5 137.167,433.5 20.5,433.5C 20.5,431.5 20.5,429.5 20.5,427.5 Z"/></g>
<g><path style="opacity:0.008" fill="#222121" d="M 489.5,427.5 C 489.833,427.5 490.167,427.5 490.5,427.5C 490.315,428.17 489.981,428.17 489.5,427.5 Z"/></g>
<g><path style="opacity:0.007" fill="#222022" d="M 371.5,428.5 C 372.613,429.946 372.78,431.613 372,433.5C 371.506,431.866 371.34,430.199 371.5,428.5 Z"/></g>
<g><path style="opacity:0.008" fill="#212020" d="M 488.5,428.5 C 488.833,428.5 489.167,428.5 489.5,428.5C 489.315,429.17 488.981,429.17 488.5,428.5 Z"/></g>
<g><path style="opacity:0.008" fill="#212020" d="M 487.5,429.5 C 487.833,429.5 488.167,429.5 488.5,429.5C 488.315,430.17 487.981,430.17 487.5,429.5 Z"/></g>
<g><path style="opacity:0.008" fill="#222121" d="M 486.5,430.5 C 486.833,430.5 487.167,430.5 487.5,430.5C 487.315,431.17 486.981,431.17 486.5,430.5 Z"/></g>
<g><path style="opacity:0.01" fill="#222021" d="M 382.5,431.5 C 382.103,432.525 381.437,432.692 380.5,432C 381.094,431.536 381.761,431.369 382.5,431.5 Z"/></g>
<g><path style="opacity:0.008" fill="#232022" d="M 483.5,432.5 C 483.5,432.167 483.5,431.833 483.5,431.5C 486.167,431.833 486.167,432.167 483.5,432.5 Z"/></g>
<g><path style="opacity:0.008" fill="#222021" d="M 483.5,432.5 C 450.336,433.664 417.003,433.831 383.5,433C 416.832,432.5 450.165,432.333 483.5,432.5 Z"/></g>
<g><path style="opacity:0.004" fill="#232120" d="M 20.5,435.5 C 136.666,434.334 252.999,434.167 369.5,435C 253.167,435.5 136.834,435.667 20.5,435.5 Z"/></g>
</svg>
