<?xml version="1.0" encoding="UTF-8"?>
<!DOCTYPE svg PUBLIC "-//W3C//DTD SVG 1.1//EN" "http://www.w3.org/Graphics/SVG/1.1/DTD/svg11.dtd">
<svg xmlns="http://www.w3.org/2000/svg" version="1.1" width="30px" height="40px" style="shape-rendering:geometricPrecision; text-rendering:geometricPrecision; image-rendering:optimizeQuality; fill-rule:evenodd; clip-rule:evenodd" xmlns:xlink="http://www.w3.org/1999/xlink">
<g><path style="opacity:1" fill="#f9f9f9" d="M -0.5,-0.5 C 9.5,-0.5 19.5,-0.5 29.5,-0.5C 29.5,4.83333 29.5,10.1667 29.5,15.5C 24.6026,5.39089 16.9359,2.55755 6.5,7C 3.57663,9.41622 1.2433,12.2496 -0.5,15.5C -0.5,10.1667 -0.5,4.83333 -0.5,-0.5 Z"/></g>
<g><path style="opacity:1" fill="#1a1a1a" d="M 29.5,15.5 C 29.5,18.1667 29.5,20.8333 29.5,23.5C 23.9829,34.7245 15.6496,37.2245 4.5,31C 2.68589,28.5205 1.01922,26.0205 -0.5,23.5C -0.5,20.8333 -0.5,18.1667 -0.5,15.5C 1.2433,12.2496 3.57663,9.41622 6.5,7C 16.9359,2.55755 24.6026,5.39089 29.5,15.5 Z"/></g>
<g><path style="opacity:1" fill="#f3f3f3" d="M 10.5,6.5 C 22.7016,5.86602 28.2016,11.5327 27,23.5C 23.7122,31.276 17.8789,34.1093 9.5,32C 1.25727,26.9069 -0.57606,20.0735 4,11.5C 5.96514,9.44965 8.13181,7.78299 10.5,6.5 Z"/></g>
<g><path style="opacity:1" fill="#101010" d="M 6.5,14.5 C 9.14921,16.14 11.8159,17.8067 14.5,19.5C 11.914,21.0426 9.41399,22.7093 7,24.5C 6.50166,21.1832 6.33499,17.8499 6.5,14.5 Z"/></g>
<g><path style="opacity:1" fill="#000000" d="M 20.5,14.5 C 21.7773,15.6936 22.4439,17.3603 22.5,19.5C 22.1667,21.1667 21.8333,22.8333 21.5,24.5C 20.513,21.2317 20.1796,17.8984 20.5,14.5 Z"/></g>
<g><path style="opacity:1" fill="#000000" d="M 16.5,14.5 C 17.7773,15.6936 18.4439,17.3603 18.5,19.5C 18.1667,21.1667 17.8333,22.8333 17.5,24.5C 16.513,21.2317 16.1796,17.8984 16.5,14.5 Z"/></g>
<g><path style="opacity:1" fill="#fafafa" d="M -0.5,23.5 C 1.01922,26.0205 2.68589,28.5205 4.5,31C 15.6496,37.2245 23.9829,34.7245 29.5,23.5C 29.5,28.8333 29.5,34.1667 29.5,39.5C 19.5,39.5 9.5,39.5 -0.5,39.5C -0.5,34.1667 -0.5,28.8333 -0.5,23.5 Z"/></g>
</svg>
