<?xml version="1.0" standalone="no"?>
<!DOCTYPE svg PUBLIC "-//W3C//DTD SVG 20010904//EN"
 "http://www.w3.org/TR/2001/REC-SVG-20010904/DTD/svg10.dtd">
<svg version="1.0" xmlns="http://www.w3.org/2000/svg"
 width="30.000000pt" height="40.000000pt" viewBox="0 0 30.000000 40.000000"
 preserveAspectRatio="xMidYMid meet">

<g transform="translate(0.000000,40.000000) scale(0.100000,-0.100000)"
fill="#000000" stroke="none">
<path d="M84 340 c-47 -24 -84 -81 -84 -131 1 -84 78 -153 161 -146 151 13
192 206 59 275 -54 27 -83 28 -136 2z m141 -32 c61 -48 68 -134 14 -187 -90
-90 -242 0 -208 123 22 79 130 115 194 64z"/>
<path d="M107 254 c-4 -4 -7 -27 -7 -51 l0 -43 51 0 50 0 -3 48 -3 47 -40 3
c-23 2 -44 0 -48 -4z"/>
</g>
</svg>
