<?xml version="1.0" standalone="no"?>
<!DOCTYPE svg PUBLIC "-//W3C//DTD SVG 20010904//EN"
 "http://www.w3.org/TR/2001/REC-SVG-20010904/DTD/svg10.dtd">
<svg version="1.0" xmlns="http://www.w3.org/2000/svg"
 width="301.000000pt" height="167.000000pt" viewBox="0 0 301.000000 167.000000"
 preserveAspectRatio="xMidYMid meet">

<g transform="translate(0.000000,167.000000) scale(0.100000,-0.100000)"
fill="#000000" stroke="none">
<path d="M1389 1661 c-328 -46 -598 -284 -691 -608 -32 -112 -32 -324 0 -436
81 -283 294 -498 577 -583 79 -23 107 -27 230 -27 123 0 151 4 228 27 288 86
497 297 579 583 32 112 32 324 0 436 -101 352 -405 595 -765 611 -56 3 -127 1
-158 -3z m259 -136 c238 -48 451 -238 528 -471 26 -80 29 -103 29 -219 0 -116
-3 -139 -29 -219 -93 -284 -372 -486 -671 -486 -299 0 -578 202 -671 486 -26
80 -29 103 -29 219 0 116 3 139 29 219 58 176 191 329 360 411 147 72 295 91
454 60z"/>
<path d="M1240 835 l0 -255 265 0 265 0 0 255 0 255 -265 0 -265 0 0 -255z"/>
</g>
</svg>
